#define hide.xbm_width 16
#define hide.xbm_height 8
static char hide.xbm_bits[] = {
   0x55, 0x55, 0xaa, 0x2a, 0x54, 0x15, 0xa8, 0x0a, 0x50, 0x05, 0xa0, 0x02,
   0x40, 0x01, 0x80, 0x00};
