#define Edge_width 16
#define Edge_height 16
static char Edge_bits[] = {
   0x00, 0x00, 0x00, 0x00, 0x00, 0x00, 0x00, 0x00, 0x00, 0x08, 0x00, 0x10,
   0x00, 0x20, 0xff, 0x7f, 0x00, 0x20, 0x00, 0x10, 0x00, 0x08, 0x00, 0x00,
   0x00, 0x00, 0x00, 0x00, 0x00, 0x00, 0x00, 0x00};
