#define graph.xbm_width 32
#define graph.xbm_height 32
static char graph.xbm_bits[] = {
   0x00, 0x00, 0x00, 0x00, 0x00, 0x00, 0x00, 0x00, 0x00, 0x00, 0x00, 0x00,
   0x00, 0x00, 0x38, 0x00, 0xe0, 0x01, 0x44, 0x00, 0x10, 0x02, 0x82, 0x00,
   0x08, 0x04, 0x83, 0x00, 0x08, 0xe4, 0x82, 0x00, 0x08, 0x1c, 0x44, 0x00,
   0x08, 0x04, 0x38, 0x00, 0x10, 0x02, 0x00, 0x00, 0xe0, 0x03, 0x00, 0x00,
   0x00, 0x04, 0x00, 0x00, 0x00, 0x08, 0x00, 0x00, 0x00, 0xc8, 0x01, 0x00,
   0x00, 0x30, 0x02, 0x00, 0x00, 0x10, 0x04, 0x00, 0x00, 0x10, 0x04, 0x00,
   0x00, 0x10, 0x04, 0x00, 0x00, 0x20, 0x02, 0x00, 0x00, 0xc0, 0x01, 0x00,
   0x00, 0x00, 0x00, 0x00, 0x00, 0x00, 0x00, 0x00, 0x00, 0x00, 0x00, 0x00,
   0x00, 0x00, 0x00, 0x00, 0x00, 0x00, 0x00, 0x00, 0x00, 0x00, 0x00, 0x00,
   0x00, 0x00, 0x00, 0x00, 0x00, 0x00, 0x00, 0x00, 0x00, 0x00, 0x00, 0x00,
   0x00, 0x00, 0x00, 0x00, 0x00, 0x00, 0x00, 0x00};
