#define hline.xbm_width 16
#define hline.xbm_height 16
static char hline.xbm_bits[] = {
   0x11, 0x11, 0x11, 0x11, 0x11, 0x11, 0x11, 0x11, 0x11, 0x11, 0x11, 0x11,
   0x11, 0x11, 0x11, 0x11, 0x11, 0x11, 0x11, 0x11, 0x11, 0x11, 0x11, 0x11,
   0x11, 0x11, 0x11, 0x11, 0x11, 0x11, 0x11, 0x11};
