#define cellpin.xbm_width 16
#define cellpin.xbm_height 16
static char cellpin.xbm_bits[] = {
   0x00, 0x00, 0x00, 0x00, 0x00, 0x00, 0x00, 0x00, 0xff, 0x1f, 0x01, 0x20,
   0x01, 0x40, 0x01, 0x80, 0x01, 0x80, 0x01, 0x40, 0x01, 0x20, 0xff, 0x1f,
   0x00, 0x00, 0x00, 0x00, 0x00, 0x00, 0x00, 0x00};
