#define clock.xbm_width 16
#define clock.xbm_height 16
static char clock.xbm_bits[] = {
   0x03, 0x00, 0x0f, 0x00, 0x3f, 0x00, 0xff, 0x00, 0xff, 0x03, 0xff, 0x0f,
   0xff, 0x3f, 0xff, 0xff, 0xff, 0x7f, 0xff, 0x1f, 0xff, 0x07, 0xff, 0x01,
   0x7f, 0x00, 0x1f, 0x00, 0x07, 0x00, 0x01, 0x00};
