#define prim.xbm_width 16
#define prim.xbm_height 16
static char prim.xbm_bits[] = {
   0xff, 0xff, 0x01, 0x80, 0x01, 0x80, 0x01, 0x80, 0x01, 0x80, 0x01, 0x80,
   0x01, 0x80, 0x01, 0x80, 0x01, 0x80, 0x01, 0x80, 0x01, 0x80, 0x01, 0x80,
   0x01, 0x80, 0x01, 0x80, 0x01, 0x80, 0xff, 0xff};
